<svg width="290" height="82" viewBox="0 0 290 82" fill="none" xmlns="http://www.w3.org/2000/svg">
<path d="M24.7803 24.7021L11.9287 65H0.0341797L18.457 15.2344H25.9766L24.7803 24.7021ZM35.4443 65L22.5586 24.7021L21.2256 15.2344H28.8477L47.3389 65H35.4443ZM34.8975 46.4746V55.0879H8.95508V46.4746H34.8975ZM50.9619 12.5H61.626V56.2158L60.5322 65H50.9619V12.5ZM84.6973 46.0986V46.8164C84.6973 49.6191 84.401 52.1712 83.8086 54.4727C83.2389 56.7741 82.3617 58.7679 81.1768 60.4541C79.9919 62.1175 78.4993 63.4049 76.6992 64.3164C74.8991 65.2279 72.7799 65.6836 70.3418 65.6836C68.0859 65.6836 66.1491 65.2165 64.5312 64.2822C62.9134 63.3252 61.5576 62.0036 60.4639 60.3174C59.3701 58.6312 58.4814 56.6602 57.7979 54.4043C57.137 52.1484 56.6243 49.7217 56.2598 47.124V45.8936C56.6243 43.2959 57.137 40.8691 57.7979 38.6133C58.4814 36.3574 59.3701 34.3864 60.4639 32.7002C61.5576 31.014 62.902 29.7038 64.4971 28.7695C66.1149 27.8125 68.0404 27.334 70.2734 27.334C72.7344 27.334 74.8649 27.8011 76.665 28.7354C78.488 29.6696 79.9919 30.9798 81.1768 32.666C82.3617 34.3294 83.2389 36.3118 83.8086 38.6133C84.401 40.8919 84.6973 43.387 84.6973 46.0986ZM74.0332 46.8164V46.0986C74.0332 44.6859 73.9307 43.3529 73.7256 42.0996C73.5433 40.8464 73.2129 39.7412 72.7344 38.7842C72.2786 37.8044 71.6292 37.041 70.7861 36.4941C69.9658 35.9245 68.9062 35.6396 67.6074 35.6396C66.3314 35.6396 65.249 35.8561 64.3604 36.2891C63.4717 36.722 62.7539 37.3372 62.207 38.1348C61.6602 38.9095 61.2614 39.8551 61.0107 40.9717C60.7601 42.0882 60.6234 43.3301 60.6006 44.6973V48.3203C60.6234 50.1432 60.8626 51.7383 61.3184 53.1055C61.7741 54.4727 62.5146 55.5322 63.54 56.2842C64.5654 57.0133 65.944 57.3779 67.6758 57.3779C68.9974 57.3779 70.0684 57.1273 70.8887 56.626C71.7318 56.1019 72.3698 55.3727 72.8027 54.4385C73.2585 53.5042 73.5775 52.3877 73.7598 51.0889C73.9421 49.79 74.0332 48.3659 74.0332 46.8164ZM88.833 46.8848V46.167C88.833 43.4554 89.2204 40.9603 89.9951 38.6816C90.7699 36.3802 91.9092 34.3864 93.4131 32.7002C94.917 31.014 96.7627 29.7038 98.9502 28.7695C101.138 27.8125 103.644 27.334 106.47 27.334C109.341 27.334 111.87 27.8125 114.058 28.7695C116.268 29.7038 118.125 31.014 119.629 32.7002C121.133 34.3864 122.272 36.3802 123.047 38.6816C123.822 40.9603 124.209 43.4554 124.209 46.167V46.8848C124.209 49.5736 123.822 52.0687 123.047 54.3701C122.272 56.6488 121.133 58.6426 119.629 60.3516C118.125 62.0378 116.279 63.348 114.092 64.2822C111.904 65.2165 109.386 65.6836 106.538 65.6836C103.713 65.6836 101.195 65.2165 98.9844 64.2822C96.7741 63.348 94.917 62.0378 93.4131 60.3516C91.9092 58.6426 90.7699 56.6488 89.9951 54.3701C89.2204 52.0687 88.833 49.5736 88.833 46.8848ZM99.5312 46.167V46.8848C99.5312 48.3431 99.6452 49.7103 99.873 50.9863C100.124 52.2624 100.522 53.3789 101.069 54.3359C101.616 55.293 102.334 56.0449 103.223 56.5918C104.134 57.1159 105.239 57.3779 106.538 57.3779C107.837 57.3779 108.931 57.1159 109.819 56.5918C110.708 56.0449 111.426 55.293 111.973 54.3359C112.52 53.3789 112.907 52.2624 113.135 50.9863C113.385 49.7103 113.511 48.3431 113.511 46.8848V46.167C113.511 44.7314 113.385 43.387 113.135 42.1338C112.907 40.8577 112.52 39.7298 111.973 38.75C111.426 37.7702 110.697 37.0068 109.785 36.46C108.896 35.9131 107.791 35.6396 106.47 35.6396C105.194 35.6396 104.111 35.9131 103.223 36.46C102.334 37.0068 101.616 37.7702 101.069 38.75C100.522 39.7298 100.124 40.8577 99.873 42.1338C99.6452 43.387 99.5312 44.7314 99.5312 46.167ZM151.519 56.0791V28.0176H162.251V65H152.202L151.519 56.0791ZM152.646 48.5254L155.586 48.457C155.586 50.9408 155.29 53.2308 154.697 55.3271C154.128 57.4235 153.262 59.2464 152.1 60.7959C150.96 62.3454 149.536 63.5531 147.827 64.4189C146.141 65.262 144.17 65.6836 141.914 65.6836C140.091 65.6836 138.416 65.4329 136.89 64.9316C135.386 64.4076 134.087 63.5986 132.993 62.5049C131.899 61.3883 131.056 59.9642 130.464 58.2324C129.871 56.4779 129.575 54.3815 129.575 51.9434V28.0176H140.239V52.0117C140.239 52.9688 140.353 53.7891 140.581 54.4727C140.832 55.1335 141.162 55.6803 141.572 56.1133C142.005 56.5462 142.529 56.8652 143.145 57.0703C143.783 57.2754 144.478 57.3779 145.229 57.3779C147.121 57.3779 148.602 56.9906 149.673 56.2158C150.767 55.4183 151.53 54.3587 151.963 53.0371C152.419 51.6927 152.646 50.1888 152.646 48.5254ZM187.988 28.0176V35.5029H166.045V28.0176H187.988ZM171.069 18.8574H181.768V53.4131C181.768 54.4385 181.893 55.2246 182.144 55.7715C182.394 56.3184 182.804 56.7057 183.374 56.9336C183.944 57.1387 184.673 57.2412 185.562 57.2412C186.2 57.2412 186.746 57.2184 187.202 57.1729C187.658 57.1273 188.079 57.0703 188.467 57.002V64.7266C187.555 65.0228 186.587 65.2507 185.562 65.4102C184.536 65.5924 183.42 65.6836 182.212 65.6836C179.91 65.6836 177.917 65.3076 176.23 64.5557C174.567 63.8037 173.291 62.6188 172.402 61.001C171.514 59.3604 171.069 57.2298 171.069 54.6094V18.8574ZM238.335 15.2344H249.478V47.9102C249.478 51.7839 248.657 55.0423 247.017 57.6855C245.399 60.3288 243.143 62.3226 240.249 63.667C237.355 65.0114 234.006 65.6836 230.2 65.6836C226.372 65.6836 223 65.0114 220.083 63.667C217.189 62.3226 214.91 60.3288 213.247 57.6855C211.606 55.0423 210.786 51.7839 210.786 47.9102V15.2344H221.963V47.9102C221.963 50.0521 222.282 51.8066 222.92 53.1738C223.581 54.5182 224.526 55.5094 225.757 56.1475C226.987 56.7627 228.468 57.0703 230.2 57.0703C231.932 57.0703 233.402 56.7627 234.609 56.1475C235.84 55.5094 236.763 54.5182 237.378 53.1738C238.016 51.8066 238.335 50.0521 238.335 47.9102V15.2344ZM276.582 54.7119C276.582 54.0283 276.366 53.4245 275.933 52.9004C275.522 52.3763 274.771 51.8978 273.677 51.4648C272.606 51.0319 271.09 50.599 269.131 50.166C267.285 49.7786 265.565 49.2773 263.97 48.6621C262.375 48.0241 260.985 47.2607 259.8 46.3721C258.615 45.4606 257.692 44.3896 257.031 43.1592C256.37 41.9059 256.04 40.4818 256.04 38.8867C256.04 37.3372 256.37 35.8675 257.031 34.4775C257.715 33.0876 258.695 31.8571 259.971 30.7861C261.27 29.7152 262.842 28.8721 264.688 28.2568C266.556 27.6416 268.675 27.334 271.045 27.334C274.303 27.334 277.118 27.8467 279.487 28.8721C281.857 29.8747 283.68 31.2874 284.956 33.1104C286.232 34.9105 286.87 36.9727 286.87 39.2969H276.206C276.206 38.3398 276.024 37.5081 275.659 36.8018C275.295 36.0954 274.736 35.5485 273.984 35.1611C273.232 34.751 272.241 34.5459 271.011 34.5459C270.054 34.5459 269.211 34.7168 268.481 35.0586C267.775 35.3776 267.217 35.8219 266.807 36.3916C266.419 36.9613 266.226 37.6221 266.226 38.374C266.226 38.8981 266.34 39.3766 266.567 39.8096C266.818 40.2197 267.194 40.6071 267.695 40.9717C268.219 41.3135 268.892 41.6211 269.712 41.8945C270.555 42.168 271.58 42.43 272.788 42.6807C275.363 43.1592 277.71 43.8314 279.829 44.6973C281.971 45.5632 283.68 46.7594 284.956 48.2861C286.255 49.8128 286.904 51.8294 286.904 54.3359C286.904 55.9766 286.528 57.4805 285.776 58.8477C285.047 60.2148 283.988 61.4111 282.598 62.4365C281.208 63.4619 279.544 64.2594 277.607 64.8291C275.671 65.3988 273.483 65.6836 271.045 65.6836C267.559 65.6836 264.608 65.057 262.192 63.8037C259.777 62.5505 257.954 60.9782 256.724 59.0869C255.516 57.1729 254.912 55.2132 254.912 53.208H264.927C264.972 54.4385 265.28 55.4411 265.85 56.2158C266.442 56.9906 267.205 57.5602 268.14 57.9248C269.074 58.2666 270.122 58.4375 271.284 58.4375C272.446 58.4375 273.415 58.278 274.189 57.959C274.964 57.64 275.557 57.207 275.967 56.6602C276.377 56.0905 276.582 55.4411 276.582 54.7119Z" fill="#274C5B"/>
</svg>
